inDegrees=yes
name=ik_20250225_orientations
DataType=double
version=3
OpenSimVersion=4.5
endheader
time	pelvis_tilt	pelvis_list	pelvis_rotation	pelvis_tx	pelvis_ty	pelvis_tz	hip_flexion_r	hip_adduction_r	hip_rotation_r	knee_angle_r_beta	knee_angle_r	ankle_angle_r	subtalar_angle_r	mtp_angle_r	hip_flexion_l	hip_adduction_l	hip_rotation_l	knee_angle_l_beta	knee_angle_l	ankle_angle_l	subtalar_angle_l	mtp_angle_l	flex_extension	lat_bending	axial_rotation	L4_L5_IVDjnt_r3	L4_L5_IVD_bendjnt_r1	L4_L5_IVD_rotjnt_r2	L3_L4_IVDjnt_r3	L3_L4_IVD_bendjnt_r1	L3_L4_IVD_rotjnt_r2	L2_L3_IVDjnt_r3	L2_L3_IVD_bendjnt_r1	L2_L3_IVD_rotjnt_r2	L1_L2_IVDjnt_r3	L1_L2_IVD_bendjnt_r1	L1_L2_IVD_rotjnt_r2	Torso_Rot	Abs_r3	Abs_t1	Abs_t2	LB_wrapjnt_r3	LB_wrapjnt_t1	LB_wrapjnt_t2	arm_flex_r	arm_add_r	arm_rot_r	elbow_flex_r	pro_sup_r	wrist_flex_r	wrist_dev_r	arm_flex_l	arm_add_l	arm_rot_l	elbow_flex_l	pro_sup_l	wrist_flex_l	wrist_dev_l
14.62500000000014	1.746110957270026	-3.887994307493903	89.4776256004705	4.318664328234593e-37	5.965334408854792e-09	6.964909149960409e-37	20.12670713946354	4.578132400790118	-3.631218640230286	0.4527120995367844	-25.93849263796417	11.36399328458455	-6.203830407540307e-26	-3.59713161048549e-26	13.18396596443775	-3.84142507009116	1.910040296900777	0.7420721720063499	-42.51760355006992	9.305351684690228	-2.624937385469823e-26	7.562205312008428e-26	-5.01533884865928e-08	0.03574765452287698	0.05983392073464582	-4.137951583528967e-07	0.3708977569423341	0.144747759690184	-5.883506228955822e-07	0.5024845230151308	0.144747759690184	-7.086759330741298e-07	0.5123098022481016	0.114274225495172	-1.475422413176285e-08	0.3849350189854256	0.09903789489370113	0.7049970324040338	-1.847300152762446e-06	1.872295563951532e-28	-3.29171159038025e-28	-1.72414649313707e-06	-1.858337294569109e-09	-6.194457648563698e-10	2.721236688645234	-13.21629687630408	13.37715952135339	21.79685286995527	60.37340608989388	-1.393139175322081e-31	-4.413906298050159e-32	5.134793240837272	-11.30643388114956	10.39489931095759	41.81359961067272	65.57716123440987	1.741423969152602e-32	8.017446986692671e-32
14.65000000000014	1.971650949674113	-4.237791608009585	89.4889824533843	-4.021861598969971e-36	5.965334408854792e-09	5.71137263606441e-31	19.41601617520692	4.960289583110563	-3.602065724933728	0.4391269430752113	-25.16012050869116	11.66815742306198	2.227246410824973e-26	-1.608867487630319e-25	16.13746075426403	-3.895603817492396	3.020352253562045	0.8282165441465233	-47.45331250250621	9.199263521802303	4.239805453924658e-27	-8.932339690490161e-26	-5.01533884865928e-08	0.03418122993765609	0.1097565697283654	-4.137951583528967e-07	0.3546454077230052	0.265518578498588	-5.883506228955822e-07	0.4804661802441346	0.265518578498588	-7.086759330741298e-07	0.4898609260854004	0.2096193404129267	-1.475422413176285e-08	0.3680675717221272	0.1816705220581827	1.293213865902314	-1.847300152762446e-06	-1.778873968572813e-27	1.520438382586566e-27	-1.72414649313707e-06	-1.858337294569109e-09	-6.194457648563698e-10	4.909104368188816	-13.27062587057747	13.83989409682347	25.3477136200814	59.746471413579	-6.655343090028755e-32	-1.017267467128748e-32	2.229414031195913	-11.44325735290558	8.987394436468124	38.90177264865218	67.35362308960067	-3.241462437630585e-32	-2.655240507420798e-32
14.67500000000014	2.008404282149358	-4.629106358983179	89.34437538055298	1.117719768463024e-40	5.965334408854792e-09	-1.62926924681401e-35	18.53875887128439	5.215545156681272	-3.346500501697815	0.4192004926760541	-24.01841900014267	11.74850241664243	-6.896728590703373e-32	1.804184199328002e-30	18.88048394574395	-2.951508325244077	3.856992450840338	0.8886729461342776	-50.91720918095086	9.369816121886746	2.259368286314425e-30	2.072122105076828e-30	-5.01533884865928e-08	0.03115860383908471	0.1602965338018811	-4.137951583528967e-07	0.3232843224994105	0.3877827805539255	-5.883506228955822e-07	0.4379788379648858	0.3877827805539255	-7.086759330741298e-07	0.4465428119462438	0.3061434387862874	-1.475422413176285e-08	0.3355195724150714	0.2653249372859985	1.888704254166371	-1.847300152762446e-06	-3.081487911019577e-32	1.025557695386203e-32	-1.72414649313707e-06	-1.858337294569109e-09	-6.194457648563698e-10	6.994506341227903	-13.60078089513581	14.01305074904973	29.21059691637467	59.06611827478223	-1.608317107352027e-30	-1.456589078356552e-30	-0.8395700945160227	-11.61857676392838	7.434309315284305	36.0343227857263	68.82676803039217	-1.161409094674448e-30	1.744527497018418e-30
14.70000000000014	1.836974519346597	-4.981164364838854	89.22931403192439	3.994161393765346e-37	5.965334408854792e-09	-3.079816845445016e-37	17.56014604513785	5.21067425183965	-3.165674711562025	0.3943039185525323	-22.59195037853026	11.66591757738208	1.034509288605506e-33	-1.765562519220063e-31	21.21863631338078	-1.778680914292716	4.462129720795997	0.9214082038656873	-52.79280129023363	9.630698491454085	1.655214861768809e-32	-1.569005754385017e-32	-5.01533884865928e-08	0.02706257453516219	0.2048724773569877	-4.137951583528967e-07	0.2807862033508476	0.4956190695093591	-5.883506228955822e-07	0.3804032750780882	0.4956190695093591	-7.086759330741298e-07	0.3878414512359362	0.3912771115079346	-1.475422413176285e-08	0.2914130390238754	0.3391076270779102	2.413923185787599	-1.847300152762446e-06	-5.103714352626175e-33	-2.479634803398566e-33	-1.72414649313707e-06	-1.858337294569109e-09	-6.194457648563698e-10	9.060216385623297	-14.17135296207189	14.10196423579162	33.06179053652966	58.24880424451838	-1.2276176891452e-31	-6.655343090028755e-32	-3.940742256573201	-11.60205929634527	6.001549661575366	33.15122777595199	69.86967024499012	-8.351507277804865e-33	7.034663162517441e-32
14.72500000000014	1.644521300183405	-5.220760127917337	89.20275029838919	-6.017306252069726e-43	5.965334408854792e-09	1.328722330155002e-45	16.30112567928373	5.094683821819473	-3.167495067651728	0.3634741936691229	-20.82553725916145	11.36821921841275	-7.434673420778236e-31	1.55869035598423e-31	23.39431035837282	-1.08387613469254	4.984302369149019	0.9309196925441583	-53.33776944839648	9.985128512725947	6.896728590703373e-31	-8.814099140269429e-31	-5.01533884865928e-08	0.02357916398579242	0.2428617797040319	-4.137951583528967e-07	0.2446442752575326	0.5875212270048427	-5.883506228955822e-07	0.3314389468801129	0.5875212270048427	-7.086759330741298e-07	0.3379197041027218	0.463831242166745	-1.475422413176285e-08	0.2539032576451398	0.4019880214551594	2.861534592309684	-1.847300152762446e-06	-7.920623778780199e-33	-2.4677538912523e-33	-1.72414649313707e-06	-1.858337294569109e-09	-6.194457648563698e-10	11.03309048755148	-14.71308947610171	13.86180076139136	36.7778067546593	57.61530745637798	2.344887720839147e-31	1.213824231963794e-31	-6.860234350696201	-11.42975426900878	4.527502977136902	30.17115168574517	70.82475731162121	1.400035903912785e-30	5.038060235508814e-31
14.75000000000014	1.514694285236355	-5.466722061504528	89.25227604874185	6.025005037450163e-37	5.965334408854792e-09	-1.474465482947177e-35	15.00761662620639	4.904010573206364	-3.387217982491005	0.3291513825700296	-18.85898504215862	10.87383636139994	1.751769062038657e-31	1.724182147675843e-32	25.51311907104792	-0.6470737600859949	5.259501409436422	0.9189664506263761	-52.6528991350087	10.08030916780326	-2.069018577211012e-32	1.689698504722326e-31	-5.01533884865928e-08	0.02143958559597318	0.2732062180268713	-4.137951583528967e-07	0.2224452013272849	0.6609292439350234	-5.883506228955822e-07	0.3013641058587598	0.6609292439350234	-7.086759330741298e-07	0.3072567977830594	0.5217847766310284	-1.475422413176285e-08	0.2308640216701234	0.4522145360530174	3.219069895109621	-1.847300152762446e-06	1.805559322863034e-33	3.22593265684862e-33	-1.72414649313707e-06	-1.858337294569109e-09	-6.194457648563698e-10	12.73299170323561	-15.22930711453113	13.17808613857267	40.62363089520792	57.08113372144048	-3.310429723537619e-32	2.069018577211012e-31	-9.719919048596653	-11.25161305949001	2.750903808725268	27.61632000750962	72.16155819586537	-2.620756864467282e-31	-7.172597734331508e-32
